<?xml version="1.0" encoding="utf-8"?>
<!-- Generator: Adobe Illustrator 26.5.0, SVG Export Plug-In . SVG Version: 6.00 Build 0)  -->
<svg version="1.1" id="Camada_1" xmlns="http://www.w3.org/2000/svg" xmlns:xlink="http://www.w3.org/1999/xlink" x="0px" y="0px"
	 viewBox="0 0 805.1 236.8" style="enable-background:new 0 0 805.1 236.8;" xml:space="preserve">
<style type="text/css">
	.st0{fill:#1D1D1B;}
	.st1{fill:#3C3C3B;}
	.st2{fill:url(#SVGID_1_);}
	.st3{fill:url(#SVGID_00000141441165462141417840000006272591870912030382_);}
	.st4{fill:url(#SVGID_00000078035876356876611530000004909400881746836105_);}
</style>
<g>
	<g>
		<path class="st0" d="M299.3,36.4c-2.5-0.6-5.2-0.9-7.7-0.9c-4.3,0-7.7,0.9-10.5,2.5c-2.8,1.8-4,4-4,6.8c0,2.8,0.6,4.6,2.2,6.2
			c1.2,1.5,3.1,2.8,4.9,3.7c1.8,0.9,4.6,1.8,8,2.8c3.7,1.2,6.8,2.2,8.9,3.1s4.3,2.5,5.8,4.6c1.5,2.2,2.5,4.6,2.5,8s-0.9,5.2-2.5,7.4
			c-1.5,2.2-3.7,3.7-6.8,4.9c-2.8,1.2-6.2,1.8-10.2,1.8c-4,0-7.1-0.6-10.8-2.2c-3.7-1.5-6.5-3.4-8.9-5.8l1.8-2.8
			c2.2,2.5,4.9,4.3,8.3,5.5s6.5,2.2,9.8,2.2c4.6,0,8.6-0.9,11.4-3.1c2.8-1.8,4.3-4.6,4.3-8c0-3.4-0.6-4.6-2.2-6.2
			c-1.2-1.5-3.1-2.8-4.9-3.7c-2.2-0.9-4.6-1.8-8-2.8c-3.7-1.2-6.8-2.2-8.9-3.4c-2.2-0.9-4-2.5-5.5-4.6c-1.5-1.8-2.5-4.6-2.5-7.7
			c0-3.1,0.6-4.9,2.2-6.8c1.5-1.8,3.7-3.4,6.5-4.6c2.8-0.9,5.8-1.5,9.5-1.5c3.7,0,5.5,0.3,8.3,1.2s5.2,1.8,7.4,3.4l-1.5,3.1
			c-1.8-1.2-4.3-2.2-6.8-3.1L299.3,36.4z"/>
		<path class="st0" d="M364.8,87.1l-7.1-15.7h-32l-7.1,15.7H315l24.9-54.8h3.4l25.2,54.8H364.8L364.8,87.1z M327,68.1h29.2
			l-14.8-32.3L327,68.1z"/>
		<path class="st0" d="M383.9,79.1c3.4,3.4,8,4.9,13.8,4.9s10.5-1.5,13.8-4.9s4.9-8,4.9-14.2V32.4h3.4V65c0,7.1-1.8,12.6-5.8,16.6
			c-4,4-9.2,5.8-16.3,5.8s-12.6-1.8-16.3-5.8c-4-4-5.8-9.5-5.8-16.6V32.4h3.4V65C379,71.1,380.5,75.7,383.9,79.1L383.9,79.1z
			 M405.2,17l3.1,1.5l-9.8,8l-3.4-0.6l10.2-9.2V17z"/>
		<path class="st0" d="M473.5,36c4.3,2.5,7.7,5.8,10.2,9.8c2.5,4.3,3.7,8.9,3.7,13.8s-1.2,9.5-3.7,13.8c-2.5,4.3-5.8,7.7-10.2,9.8
			c-4.3,2.5-9.2,3.7-14.2,3.7h-21.9V32.4h21.9C464.6,32.4,469.2,33.6,473.5,36z M471.6,80.7c3.7-2.2,6.8-5.2,8.9-8.9s3.4-7.7,3.4-12
			s-1.2-8.6-3.4-12.3c-2.2-3.7-5.2-6.8-8.9-8.9c-3.7-2.2-8-3.4-12.6-3.4h-18.5v48.3H459c4.6,0,8.6-1.2,12.3-3.4L471.6,80.7z"/>
		<path class="st0" d="M500.6,32.4H536v3.1h-32v21.9h28.6v3.4H504v23.4h33.2v3.1h-36.3V32.4H500.6z"/>
		<path class="st0" d="M608.9,37c3.7,3.1,5.5,7.7,5.5,13.2s-1.8,10.5-5.5,13.8c-3.7,3.1-8.9,4.9-15.7,4.9h-16v18.2h-3.4V32.4h19.4
			C600,32.4,605.2,33.9,608.9,37z M606.4,61.6c3.1-2.8,4.6-6.5,4.6-11.4s-1.5-8.6-4.6-11.1c-3.1-2.5-7.7-3.7-13.2-3.7h-16v30.2h16
			C599.1,65.6,603.4,64.4,606.4,61.6z"/>
		<path class="st0" d="M664.6,87.1l-7.1-15.7h-32l-7.1,15.7h-3.7l24.9-54.8h3.4l25.2,54.8H664.6L664.6,87.1z M626.8,68.1H656
			l-14.8-32.3L626.8,68.1z"/>
		<path class="st0" d="M715.4,87.1l-12.9-18.5c-1.2,0-2.8,0.3-4.6,0.3h-16v18.2h-3.4V32.4h19.4c6.8,0,12,1.5,15.7,4.6
			s5.5,7.7,5.5,13.2s-1.2,8.6-3.4,11.4c-2.2,3.1-5.5,4.9-10.2,6.2l13.8,19.1h-4V87.1z M697.9,65.6c5.8,0,10.2-1.2,13.2-4
			s4.6-6.5,4.6-11.4s-1.5-8.6-4.6-11.1c-3.1-2.5-7.7-3.7-13.2-3.7h-16.3v30.2H697.9z"/>
		<path class="st0" d="M776.3,87.1l-7.1-15.7h-32l-7.1,15.7h-3.7l24.9-54.8h3.4L780,87.1H776.3L776.3,87.1z M738.5,68.1h29.2
			l-14.8-32.3L738.5,68.1z"/>
	</g>
	<g>
		<path class="st1" d="M772.3,159.5c-3.4-1.5-7.7-3.1-12.9-4.6c-4.6-1.2-8-2.5-10.2-3.7c-2.2-1.2-3.1-2.8-3.1-4.6s0.6-2.5,1.5-3.4
			s2.5-1.2,4.6-1.2c3.1,0,7.1,0.9,11.7,2.5s9.2,3.7,13.2,5.8l8.3-16.9c-4-2.8-8.9-4.6-14.5-6.5c-5.5-1.5-11.1-2.5-16.6-2.5
			s-11.7,0.9-16.3,2.8c-4.6,1.8-8.3,4.6-10.8,8.3c-2.5,3.7-3.7,7.7-3.7,12.6s1.2,8.9,3.7,12c2.5,3.1,5.5,5.2,8.9,6.8
			c3.4,1.5,7.7,2.8,12.9,4.3c4.6,1.2,8,2.5,10.2,3.4c2.2,1.2,3.4,2.8,3.4,4.6s-0.6,3.1-2.2,4c-1.2,0.9-3.4,1.5-5.5,1.5
			c-4,0-8.6-1.2-14.2-3.4c-5.5-2.2-10.2-4.9-13.8-8.3l-8.3,16.9c4.6,3.7,10.2,6.8,16.6,8.9c6.5,2.2,12.9,3.4,19.4,3.4
			c6.5,0,11.1-0.9,15.7-2.8s8.3-4.3,11.1-8s4-8,4-13.2c0-5.2-1.2-9.2-3.7-12.3c-2.5-3.1-5.5-5.5-8.9-7.1L772.3,159.5z M320.2,168.1
			l-20-41.5h-23.7v74.8h19.4V157l16.9,36.9h14.5l16.9-36.9v44.3h19.4v-74.8h-23.7l-20,41.5H320.2z M398.7,172.4h35.4v-16.9h-35.4
			v-11.7h38.8v-16.9h-61.2v74.8h62.2v-16.9h-40V173L398.7,172.4z M427,108.4l-16.9-6.2l-13.5,18.2l14.2,0.9L427,108.4L427,108.4z
			 M530.4,201h22.2v-74.8h-22.2V201z M592.3,145.9c2.8-1.8,5.8-2.5,8.9-2.5s6.2,0.9,9.5,2.8c3.4,1.8,6.2,4.3,8.3,7.4l12.9-15.4
			c-3.7-4-8.3-7.4-14.2-9.8c-5.5-2.5-11.1-3.7-16.9-3.7s-14.5,1.5-20.6,4.9s-10.8,8-14.5,13.8c-3.4,5.8-5.2,12.3-5.2,19.7
			c0,7.4,1.8,14.2,5.2,20c3.4,5.8,8,10.8,14.2,14.2s12.6,4.9,20.3,4.9s11.4-1.2,16.9-4s10.5-6.2,14.8-10.5l-12.9-13.5
			c-2.5,2.8-5.5,4.9-8.6,6.5c-3.4,1.5-6.2,2.5-9.2,2.5s-6.5-0.9-8.9-2.5c-2.8-1.8-4.9-4-6.5-7.1s-2.5-6.5-2.5-10.2s0.9-7.1,2.5-10.2
			c1.5-3.1,3.7-5.5,6.5-7.1L592.3,145.9z M694.8,129.9c-6.2-3.4-13.2-4.9-20.9-4.9s-14.8,1.5-20.9,4.9s-11.1,8-14.5,13.8
			c-3.4,5.8-5.2,12.3-5.2,19.7c0,7.4,1.8,14.2,5.2,20c3.4,5.8,8.3,10.5,14.5,13.8s13.2,4.9,20.9,4.9s14.8-1.5,20.9-4.9
			s11.1-8,14.5-13.8c3.4-5.8,5.2-12.6,5.2-20c0-7.4-1.8-13.8-5.2-19.7C705.9,137.9,700.9,133.3,694.8,129.9z M689.5,173.9
			c-1.5,3.1-3.7,5.5-6.5,7.4c-2.8,1.8-5.8,2.8-8.9,2.8s-6.5-0.9-9.2-2.8s-4.9-4.3-6.8-7.4c-1.5-3.1-2.5-6.5-2.5-10.5
			c0-4,0.9-7.1,2.5-10.2c1.5-3.1,4-5.5,6.8-7.4c2.8-1.8,5.8-2.8,9.2-2.8c3.4,0,6.2,0.9,8.9,2.8c2.8,1.8,4.9,4.3,6.5,7.4
			c1.5,3.1,2.5,6.5,2.5,10.2C692,167.2,691.1,170.9,689.5,173.9z M502.7,130.8c-6.2-3.1-13.2-4.6-20.9-4.6h-32.6V201h32
			c8,0,15.4-1.5,21.5-4.6c6.2-3.1,11.1-7.4,14.5-13.2c3.4-5.5,5.2-12.3,5.2-19.7s-1.5-13.8-4.9-19.7c-3.4-5.5-8-10.2-14.2-13.2
			L502.7,130.8z M494.4,178.2c-3.1,3.7-7.1,5.5-12.3,5.5H471v-40h10.2c5.2,0,9.5,1.8,12.9,5.5c3.4,3.7,4.9,8.6,4.9,14.5
			C499,169.6,497.5,174.5,494.4,178.2z"/>
		
			<linearGradient id="SVGID_1_" gradientUnits="userSpaceOnUse" x1="274.5099" y1="-42.6425" x2="782.955" y2="-42.6425" gradientTransform="matrix(1 0 0 -1 2 106.51)">
			<stop  offset="0" style="stop-color:#003D2B"/>
			<stop  offset="1" style="stop-color:#00A774;stop-opacity:0.5"/>
		</linearGradient>
		<path class="st2" d="M320.2,165l-20-41.5h-23.7v74.8h19.4v-44.3l16.9,36.9h14.5l16.9-36.9v44.3h19.4v-74.8h-23.7l-20,41.5
			L320.2,165z M503,128.1c-6.2-3.1-13.2-4.6-20.9-4.6h-32.6v74.8h32c8,0,15.4-1.5,21.5-4.6c6.2-3.1,11.1-7.4,14.5-13.2
			c3.4-5.5,5.2-12.3,5.2-19.7s-1.5-13.8-4.9-19.7c-3.4-5.5-8-10.2-14.2-13.2L503,128.1z M494.7,175.5c-3.1,3.7-7.1,5.5-12.3,5.5
			h-11.1v-40h10.2c5.2,0,9.5,1.8,12.9,5.5s4.9,8.6,4.9,14.5C499.3,166.8,497.8,171.8,494.7,175.5z M398.4,169.3h35.4v-16.9h-35.4
			v-11.7h38.8v-16.9h-61.2v74.8h62.2v-16.9h-40v-11.7L398.4,169.3z M426.7,105.3l-16.9-6.2l-13.5,18.2l14.2,0.9L426.7,105.3
			L426.7,105.3z M694.8,126.8c-6.2-3.4-13.2-4.9-20.9-4.9s-14.8,1.5-20.9,4.9c-6.2,3.4-11.1,8-14.5,13.8c-3.4,5.8-5.2,12.3-5.2,19.7
			c0,7.4,1.8,14.2,5.2,20c3.4,5.8,8.3,10.5,14.5,13.8c6.2,3.4,13.2,4.9,20.9,4.9s14.8-1.5,20.9-4.9c6.2-3.4,11.1-8,14.5-13.8
			c3.4-5.8,5.2-12.6,5.2-20s-1.8-13.8-5.2-19.7C705.9,134.8,700.9,130.2,694.8,126.8z M689.5,170.9c-1.5,3.1-3.7,5.5-6.5,7.4
			c-2.8,1.8-5.8,2.8-8.9,2.8s-6.5-0.9-9.2-2.8s-4.9-4.3-6.8-7.4c-1.5-3.1-2.5-6.5-2.5-10.5c0-4,0.9-7.1,2.5-10.2s4-5.5,6.8-7.4
			s5.8-2.8,9.2-2.8c3.4,0,6.2,0.9,8.9,2.8c2.8,1.8,4.9,4.3,6.5,7.4s2.5,6.5,2.5,10.2C692,164.1,691.1,167.8,689.5,170.9z
			 M530.1,197.9h22.2v-74.8h-22.2V197.9z M771.7,156.1c-3.4-1.5-7.7-3.1-12.9-4.6c-4.6-1.2-8-2.5-10.2-3.7s-3.1-2.8-3.1-4.6
			s0.6-2.5,1.5-3.4c0.9-0.9,2.5-1.2,4.6-1.2c3.1,0,7.1,0.9,11.7,2.5c4.6,1.5,9.2,3.7,13.2,5.8l8.3-16.9c-4-2.8-8.9-4.6-14.5-6.5
			c-5.5-1.5-11.1-2.5-16.6-2.5c-5.5,0-11.7,0.9-16.3,2.8c-4.6,1.8-8.3,4.6-10.8,8.3c-2.5,3.7-3.7,7.7-3.7,12.6s1.2,8.9,3.7,12
			c2.5,3.1,5.5,5.2,8.9,6.8c3.4,1.5,7.7,2.8,12.9,4.3c4.6,1.2,8,2.5,10.2,3.4c2.2,1.2,3.4,2.8,3.4,4.6s-0.6,3.1-2.2,4
			c-1.2,0.9-3.4,1.5-5.5,1.5c-4,0-8.6-1.2-14.2-3.4c-5.5-2.2-10.2-4.9-13.8-8.3l-8.3,16.9c4.6,3.7,10.2,6.8,16.6,8.9
			c6.5,2.2,12.9,3.4,19.4,3.4s11.1-0.9,15.7-2.8c4.6-1.8,8.3-4.3,11.1-8s4-8,4-13.2s-1.2-9.2-3.7-12.3s-5.5-5.5-8.9-7.1L771.7,156.1
			z M592,142.8c2.8-1.8,5.8-2.5,8.9-2.5s6.2,0.9,9.5,2.8c3.4,1.8,6.2,4.3,8.3,7.4l12.9-15.4c-3.7-4-8.3-7.4-14.2-9.8
			c-5.5-2.5-11.1-3.7-16.9-3.7s-14.5,1.5-20.6,4.9c-6.2,3.4-10.8,8-14.5,13.8c-3.4,5.8-5.2,12.3-5.2,19.7c0,7.4,1.8,14.2,5.2,20
			c3.4,5.8,8,10.8,14.2,14.2c6.2,3.4,12.6,4.9,20.3,4.9s11.4-1.2,16.9-4c5.5-2.8,10.5-6.2,14.8-10.5l-12.9-13.5
			c-2.5,2.8-5.5,4.9-8.6,6.5c-3.4,1.5-6.2,2.5-9.2,2.5s-6.5-0.9-8.9-2.5c-2.8-1.8-4.9-4-6.5-7.1c-1.5-3.1-2.5-6.5-2.5-10.2
			c0-3.7,0.9-7.1,2.5-10.2s3.7-5.5,6.5-7.1L592,142.8z"/>
	</g>
</g>
<g>
	
		<linearGradient id="SVGID_00000128486182062055806360000009698701390877538991_" gradientUnits="userSpaceOnUse" x1="86.6124" y1="150.9749" x2="220.8025" y2="150.9749" gradientTransform="matrix(1 0 0 -1 0 236.11)">
		<stop  offset="0" style="stop-color:#003D2B"/>
		<stop  offset="1" style="stop-color:#00A774;stop-opacity:0.5"/>
	</linearGradient>
	<path style="fill:url(#SVGID_00000128486182062055806360000009698701390877538991_);" d="M186.9,84.4h-32.3V52
		c0-18.8-15.4-33.9-33.9-33.9S86.9,33.6,86.9,52v33.9h33.2c18.8,0,33.9,15.4,33.9,33.9l0,0v32.3h33.2c18.8,0,33.9-15.4,33.9-33.9
		s-15.4-33.9-33.9-33.9H186.9z"/>
	
		<linearGradient id="SVGID_00000071540935114787396000000014275803337821611188_" gradientUnits="userSpaceOnUse" x1="19.5173" y1="83.2642" x2="153.7074" y2="83.2642" gradientTransform="matrix(1 0 0 -1 0 236.11)">
		<stop  offset="0" style="stop-color:#6E0E00"/>
		<stop  offset="1" style="stop-color:#E50042;stop-opacity:0.5"/>
	</linearGradient>
	<path style="fill:url(#SVGID_00000071540935114787396000000014275803337821611188_);" d="M86.6,118.2V85.9H53.4
		c-18.8,0-33.9,15.4-33.9,33.9l0,0c0,18.8,15.4,33.9,33.9,33.9h32.3v32.3c0,18.8,15.4,33.9,33.9,33.9l0,0
		c18.8,0,33.9-15.4,33.9-33.9v-33.9h-33.2c-18.8,0-33.9-15.4-33.9-33.9L86.6,118.2z"/>
</g>
</svg>
