<?xml version="1.0" encoding="utf-8"?>
<!-- Generator: Adobe Illustrator 26.5.0, SVG Export Plug-In . SVG Version: 6.00 Build 0)  -->
<svg version="1.1" id="Camada_1" xmlns="http://www.w3.org/2000/svg" xmlns:xlink="http://www.w3.org/1999/xlink" x="0px" y="0px"
	 viewBox="0 0 79.5 77.9" style="enable-background:new 0 0 79.5 77.9;" xml:space="preserve">
<style type="text/css">
	.st0{fill:url(#Caminho_1923_00000176021526465658462490000005022661952323370653_);}
	.st1{fill:url(#Caminho_1924_00000112619051486349344770000007192269471370738843_);}
</style>
<g id="Grupo_2582" transform="translate(-19.5 -18.1)">
	
		<linearGradient id="Caminho_1923_00000065792820562207330480000016631845853653677750_" gradientUnits="userSpaceOnUse" x1="-243.7531" y1="457.6266" x2="-242.7531" y2="457.6266" gradientTransform="matrix(50.2926 0 0 -50.4278 12305.9473 23122.4043)">
		<stop  offset="0" style="stop-color:#003D2A"/>
		<stop  offset="1" style="stop-color:#00A774;stop-opacity:0.502"/>
	</linearGradient>
	<path id="Caminho_1923" style="fill:url(#Caminho_1923_00000065792820562207330480000016631845853653677750_);" d="M84.6,45.1H72.5
		V32.9c0.1-7-5.6-12.8-12.6-12.8c-7-0.1-12.8,5.6-12.8,12.6c0,0.1,0,0.2,0,0.2v12.7h12.5c7,0,12.7,5.7,12.7,12.7l0,0v12.1h12.5
		c7-0.1,12.7-5.8,12.6-12.8c-0.1-6.9-5.7-12.6-12.6-12.6L84.6,45.1L84.6,45.1z"/>
	
		<linearGradient id="Caminho_1924_00000111153920385054818740000009557196494551760270_" gradientUnits="userSpaceOnUse" x1="-243.7554" y1="457.6118" x2="-242.7544" y2="457.6118" gradientTransform="matrix(50.333 0 0 -50.333 12290.6934 23103.8105)">
		<stop  offset="0" style="stop-color:#6D150B"/>
		<stop  offset="1" style="stop-color:#E50142;stop-opacity:0.502"/>
	</linearGradient>
	<path id="Caminho_1924" style="fill:url(#Caminho_1924_00000111153920385054818740000009557196494551760270_);" d="M47,57.8V45.7
		H34.5c-7,0-12.7,5.7-12.7,12.7l0,0c0,7,5.7,12.7,12.7,12.7h12.1v12.1c0,7,5.7,12.7,12.7,12.7l0,0c7,0,12.7-5.7,12.7-12.7V70.5H59.6
		C52.6,70.5,46.9,64.8,47,57.8L47,57.8z"/>
</g>
</svg>
